<svg width="46" height="45" viewBox="0 0 46 45" fill="none" xmlns="http://www.w3.org/2000/svg">
<path d="M28.0941 12.2874C28.0939 11.1811 27.7657 10.0998 27.151 9.18005C26.5363 8.26031 25.6627 7.5435 24.6406 7.12026C23.6185 6.69702 22.4939 6.58636 21.409 6.80227C20.324 7.01818 19.3274 7.55097 18.5452 8.33325C17.7631 9.11554 17.2304 10.1122 17.0146 11.1972C16.7989 12.2822 16.9097 13.4068 17.3331 14.4288C17.7564 15.4509 18.4734 16.3244 19.3932 16.939C20.313 17.5536 21.3944 17.8816 22.5006 17.8816C23.9837 17.8798 25.4055 17.2898 26.4541 16.241C27.5027 15.1923 28.0925 13.7704 28.0941 12.2874ZM18.2321 12.2874C18.2322 11.4432 18.4827 10.618 18.9518 9.91608C19.4209 9.21421 20.0877 8.66721 20.8676 8.34425C21.6476 8.02128 22.5059 7.93686 23.3339 8.10165C24.1618 8.26644 24.9224 8.67305 25.5193 9.27005C26.1162 9.86706 26.5226 10.6277 26.6873 11.4557C26.8519 12.2837 26.7673 13.1419 26.4442 13.9218C26.1211 14.7018 25.574 15.3684 24.8721 15.8374C24.1701 16.3064 23.3449 16.5568 22.5006 16.5568C21.3688 16.5555 20.2837 16.1052 19.4835 15.3048C18.6832 14.5044 18.2332 13.4192 18.2321 12.2874Z" fill="#493A31"/>
<path d="M44.9578 44.1014L39.5578 29.9447C39.5099 29.8193 39.4251 29.7115 39.3146 29.6354C39.2041 29.5593 39.0731 29.5185 38.9389 29.5185H28.7188C28.7813 29.4166 28.8433 29.3178 28.9058 29.2156C32.8383 22.7051 34.8172 17.0098 34.7888 12.2904C34.7893 9.03134 33.4952 5.90554 31.1911 3.60064C28.887 1.29574 25.7616 0.000552323 22.5025 1.76609e-07C19.2435 -0.00055197 16.1177 1.29358 13.8128 3.5977C11.5079 5.90182 10.2127 9.02718 10.2121 12.2863C10.1837 17.0098 12.1626 22.7058 16.0951 29.2156C16.1576 29.319 16.2196 29.4178 16.2821 29.5185H6.062C5.92783 29.5185 5.79683 29.5593 5.68632 29.6354C5.57582 29.7115 5.49101 29.8193 5.44312 29.9447L0.0438854 44.1014C0.00541406 44.2017 -0.0080576 44.3098 0.00463443 44.4165C0.0173265 44.5232 0.0558004 44.6252 0.116732 44.7136C0.177664 44.8021 0.259221 44.8744 0.354356 44.9243C0.449492 44.9742 0.555344 45.0002 0.662769 45H44.3389C44.4463 45.0002 44.5522 44.9742 44.6473 44.9243C44.7424 44.8744 44.824 44.8021 44.8849 44.7136C44.9458 44.6252 44.9843 44.5232 44.997 44.4165C45.0097 44.3098 44.9962 44.2017 44.9578 44.1014ZM11.5373 12.2874C11.5376 10.8476 11.8214 9.42204 12.3726 8.09198C12.9238 6.76192 13.7316 5.55345 14.7498 4.53557C15.768 3.51769 16.9768 2.71033 18.307 2.1596C19.6373 1.60886 21.063 1.32552 22.5027 1.32577C23.9425 1.32602 25.3681 1.60985 26.6981 2.16104C28.0282 2.71224 29.2367 3.52002 30.2545 4.53825C31.2724 5.55648 32.0798 6.76523 32.6305 8.09548C33.1812 9.42572 33.4646 10.8514 33.4643 12.2912C33.5211 21.7005 24.7243 33.3056 22.5008 36.0885C20.2774 33.3067 11.4802 21.7046 11.5373 12.2874ZM21.9963 37.5647C22.0584 37.6378 22.1358 37.6965 22.2229 37.7368C22.31 37.7771 22.4048 37.7979 22.5008 37.7979C22.5968 37.7979 22.6916 37.7771 22.7788 37.7368C22.8659 37.6965 22.9432 37.6378 23.0054 37.5647C24.7641 35.4222 26.3946 33.1776 27.8883 30.8425H38.482L39.3299 33.0663L18.6282 40.429L11.2493 30.8414H17.1126C18.6065 33.1768 20.2372 35.4219 21.9963 37.5647ZM18.6051 41.842H18.6089L30.9589 37.4511L35.7491 43.6752H13.4542L18.6051 41.842ZM6.51888 30.8414H9.57733L17.3151 40.8957L9.50125 43.6748H1.62421L6.51888 30.8414ZM37.4225 43.6752L32.2712 36.9821L39.8038 34.3033L43.3782 43.6752H37.4225Z" fill="#493A31"/>
</svg>
