<svg width="47" height="43" viewBox="0 0 47 43" fill="none" xmlns="http://www.w3.org/2000/svg">
<path d="M29.6841 26.1589C29.1373 26.623 28.417 26.8488 27.4816 26.8488C26.3942 26.8488 25.5982 26.5888 25.0478 26.0535C24.701 25.7163 24.4733 25.2992 24.3514 24.7782C24.1301 23.8335 23.2886 23.1739 22.3049 23.1739C21.658 23.1739 21.0558 23.4645 20.6526 23.9712C20.2501 24.4771 20.1025 25.1279 20.2478 25.7569C20.5226 26.9466 21.0634 27.9642 21.8554 28.7812C22.8059 29.762 24.0593 30.404 25.5867 30.6934V31.3616C25.5867 32.4535 26.4752 33.342 27.5672 33.342C28.6591 33.342 29.5476 32.4535 29.5476 31.3616V30.6597C30.8819 30.3767 31.9965 29.8029 32.8662 28.9502C34.0248 27.8143 34.6122 26.3247 34.6122 24.5232C34.6122 23.3964 34.3854 22.3972 33.938 21.5531C33.9378 21.5529 33.9378 21.5529 33.9378 21.5529C33.4911 20.7114 32.8224 19.9816 31.9502 19.3834C31.1443 18.8309 29.9391 18.2862 28.2664 17.7181C26.5725 17.1431 25.8051 16.6408 25.4595 16.321C25.0901 15.9788 24.918 15.4982 24.918 14.8085C24.918 14.0794 25.1192 13.5507 25.5516 13.1449C26.0018 12.7222 26.6631 12.5166 27.5734 12.5166C28.4368 12.5166 29.056 12.7628 29.5216 13.2909C29.843 13.6559 30.055 14.1011 30.1695 14.6517C30.369 15.6127 31.2334 16.3103 32.2255 16.3103C32.8569 16.3103 33.45 16.0307 33.853 15.5431C34.2528 15.0597 34.4146 14.4302 34.2968 13.8167C34.064 12.6034 33.5903 11.5619 32.8884 10.7211C32.051 9.71859 30.9464 9.04609 29.6 8.71725V7.83897C29.6 6.74347 28.7086 5.85205 27.613 5.85205C26.5173 5.85205 25.6259 6.74347 25.6259 7.83897V8.70195C24.3411 8.9916 23.2633 9.57209 22.4166 10.4315C21.2905 11.5743 20.7195 13.0584 20.7195 14.8424C20.7195 16.5428 21.2422 17.965 22.2732 19.0696C23.2399 20.1056 24.7866 20.9473 26.985 21.6373C28.7387 22.2445 29.5084 22.765 29.8454 23.0951C30.2237 23.4657 30.4001 23.9279 30.4001 24.5498C30.4008 25.2323 30.1731 25.7435 29.6841 26.1589ZM30.6821 22.2409C30.0562 21.6279 28.9748 21.0611 27.3602 20.5023C25.3475 19.8702 23.9695 19.1348 23.1474 18.2539C22.3298 17.3778 21.9152 16.23 21.9152 14.8422C21.9152 13.3832 22.3704 12.1813 23.2685 11.2698C24.0409 10.4857 25.0674 9.98602 26.3189 9.78479C26.6086 9.73819 26.8215 9.48821 26.8215 9.19498V7.83897C26.8215 7.40211 27.1769 7.04698 27.6138 7.04698C28.0506 7.04698 28.4058 7.40235 28.4058 7.83897V9.20238C28.4058 9.49251 28.6142 9.74058 28.9 9.79077C30.1864 10.0164 31.2201 10.5871 31.9719 11.4871C32.5421 12.1703 32.9298 13.03 33.1238 14.0418C33.174 14.3042 33.1042 14.5741 32.9324 14.7822C32.7574 14.994 32.4998 15.1156 32.2259 15.1156C31.7977 15.1156 31.4249 14.8185 31.34 14.4092C31.1844 13.6604 30.8745 13.0185 30.4187 12.5011C29.7288 11.7187 28.7716 11.3219 27.5739 11.3219C26.3452 11.3219 25.4165 11.6333 24.7342 12.2738C24.0634 12.9033 23.7236 13.7562 23.7236 14.8085C23.7236 15.8256 24.0345 16.6296 24.648 17.1979C25.2834 17.7863 26.3414 18.3266 27.8826 18.8497C29.4506 19.3822 30.5602 19.8793 31.275 20.369C31.9865 20.8567 32.5273 21.4434 32.8824 22.1128C33.2373 22.7825 33.4175 23.5936 33.4175 24.5232C33.4175 25.9918 32.9505 27.1941 32.0297 28.097C31.2349 28.8764 30.1685 29.372 28.8608 29.5704C28.5688 29.6148 28.3529 29.8658 28.3529 30.1611V31.3616C28.3529 31.7949 28.0004 32.1471 27.5674 32.1471C27.1341 32.1471 26.7819 31.7946 26.7819 31.3616V30.1846C26.7819 29.8851 26.5601 29.6318 26.2633 29.5924C24.7722 29.394 23.578 28.8415 22.7138 27.9496C22.0755 27.2909 21.6375 26.4626 21.4126 25.488C21.3497 25.2158 21.4138 24.9343 21.5882 24.7149C21.7634 24.4948 22.0249 24.3686 22.3054 24.3686C22.7244 24.3686 23.0957 24.6554 23.1882 25.0507C23.3615 25.7903 23.7068 26.416 24.2152 26.9102C24.9993 27.6731 26.0678 28.0437 27.4818 28.0437C28.7126 28.0437 29.686 27.7252 30.4577 27.0699C31.2131 26.4284 31.596 25.5805 31.596 24.5495C31.5957 23.6113 31.2884 22.8346 30.6821 22.2409Z" fill="#493A31"/>
<path d="M27.4031 0C22.535 0 17.8645 1.8041 14.2517 5.0801C10.9698 8.05618 8.80598 12.0154 8.07851 16.3322L6.25601 14.5097C5.55746 13.8114 4.42013 13.8109 3.72134 14.51C3.3827 14.8484 3.19629 15.2986 3.19629 15.7773C3.19629 16.256 3.3827 16.7062 3.72134 17.0446L8.45324 21.7763C8.79165 22.115 9.24189 22.3011 9.72058 22.3011C10.1993 22.3011 10.6493 22.1147 10.9879 21.7761L15.7196 17.0444C16.4184 16.3456 16.4184 15.2085 15.7193 14.5095C15.0208 13.8112 13.8837 13.8107 13.1847 14.5097L11.8289 15.8655C13.525 8.74852 19.9217 3.58477 27.4033 3.58477C36.2324 3.58477 43.4153 10.7677 43.4153 19.5968C43.4153 28.4258 36.2324 35.6088 27.4033 35.6088C25.0866 35.6088 22.8557 35.1279 20.7724 34.1796C20.4723 34.0429 20.1179 34.1756 19.9812 34.476C19.8445 34.7761 19.9771 35.1306 20.2775 35.2673C22.517 36.2868 24.9145 36.8037 27.4033 36.8037C36.8913 36.8037 44.6102 29.0847 44.6102 19.5968C44.6102 10.1088 36.8913 2.38985 27.4033 2.38985C18.6871 2.38985 11.3414 8.91127 10.3164 17.5594C10.2865 17.8123 10.4199 18.0563 10.6488 18.1674C10.8777 18.2783 11.1521 18.2324 11.3321 18.0522L14.0295 15.3548C14.2627 15.1218 14.642 15.122 14.8748 15.3545C15.1078 15.5876 15.1078 15.9666 14.8748 16.1996L10.1433 20.931C9.9175 21.1566 9.5239 21.1566 9.29805 20.9313L4.56639 16.1996C4.45359 16.0868 4.39145 15.9367 4.39145 15.7771C4.39145 15.6174 4.45359 15.4673 4.56615 15.3545C4.7994 15.1215 5.17867 15.1218 5.41144 15.3543L8.08521 18.0281C8.24772 18.1908 8.49005 18.2458 8.70728 18.1688C8.92452 18.0919 9.07795 17.8969 9.10185 17.6679C10.0841 8.27653 17.9519 1.19469 27.4033 1.19469C37.5501 1.19469 45.8052 9.4497 45.8052 19.5965C45.8052 29.7434 37.5501 37.9984 27.4033 37.9984C24.856 37.9984 22.394 37.491 20.0851 36.4901C19.7823 36.3594 19.4305 36.4983 19.2993 36.8008C19.1681 37.1036 19.3072 37.4554 19.61 37.5866C22.0697 38.6527 24.6916 39.1933 27.4033 39.1933C38.209 39.1933 47.0001 30.4022 47.0001 19.5965C46.9999 8.79106 38.2088 0 27.4031 0Z" fill="#493A31"/>
<path d="M9.51949 42.5695C4.27042 42.5695 0 38.299 0 33.05C0 27.8009 4.27042 23.5302 9.51949 23.5302C14.7686 23.5302 19.0392 27.8006 19.0392 33.05C19.0392 38.299 14.7688 42.5695 9.51949 42.5695ZM9.51949 24.7251C4.9293 24.7251 1.19492 28.4598 1.19492 33.05C1.19492 37.6401 4.9293 41.3745 9.51949 41.3745C14.1097 41.3745 17.8443 37.6399 17.8443 33.05C17.8443 28.46 14.1097 24.7251 9.51949 24.7251Z" fill="#493A31"/>
<path d="M8.20469 37.7102C7.71405 37.7102 7.25281 37.5193 6.9058 37.1722L3.68859 33.9553C3.34158 33.6085 3.15039 33.147 3.15039 32.6564C3.15039 32.1655 3.34158 31.7043 3.68859 31.3573C4.40482 30.6413 5.57012 30.6413 6.28659 31.3573L8.20469 33.2754L12.8804 28.5994C13.2272 28.2523 13.6884 28.0614 14.1793 28.0614C14.6702 28.0614 15.1314 28.2523 15.4784 28.5994C15.8254 28.9464 16.0166 29.4076 16.0166 29.8985C16.0166 30.3891 15.8254 30.8506 15.4784 31.1976L9.50381 37.1725C9.15656 37.5193 8.69532 37.7102 8.20469 37.7102ZM4.98771 32.0142C4.82329 32.0142 4.65887 32.0768 4.53364 32.2021C4.41247 32.3232 4.34556 32.4845 4.34556 32.6561C4.34556 32.8275 4.41247 32.9888 4.53364 33.11L7.75085 36.3272C7.99366 36.5698 8.41619 36.5698 8.659 36.3272L14.6336 30.3523C14.755 30.2309 14.8219 30.0696 14.8219 29.8982C14.8219 29.7267 14.755 29.5653 14.6336 29.4442C14.3911 29.2014 13.9681 29.2014 13.7257 29.4439L8.62745 34.5422C8.40328 34.7666 8.00657 34.7666 7.78264 34.5422L5.44226 32.2016C5.31655 32.0768 5.15213 32.0142 4.98771 32.0142Z" fill="#493A31"/>
</svg>
