<svg width="30" height="30" viewBox="0 0 30 30" fill="none" xmlns="http://www.w3.org/2000/svg">
<path d="M19.9483 14.4135L13.7189 9.88452C13.4902 9.71878 13.1868 9.69382 12.9362 9.82262C12.6836 9.95042 12.5259 10.21 12.5259 10.4906V19.5454C12.5259 19.829 12.6836 20.0876 12.9362 20.2154C13.043 20.2693 13.1598 20.2963 13.2776 20.2963C13.4313 20.2963 13.5871 20.2473 13.7189 20.1505L19.9483 15.6256C20.145 15.4808 20.2598 15.2571 20.2598 15.0195C20.2608 14.7779 20.143 14.5552 19.9483 14.4135Z" fill="#493A31"/>
<path d="M15.0005 0C6.71458 0 0 6.71548 0 15.0025C0 23.2865 6.71458 30 15.0005 30C23.2844 30 30 23.2855 30 15.0025C30.001 6.71548 23.2844 0 15.0005 0ZM15.0005 27.4969C8.10023 27.4969 2.50574 21.9047 2.50574 15.0025C2.50574 8.1033 8.10023 2.50408 15.0005 2.50408C21.8998 2.50408 27.4933 8.10231 27.4933 15.0025C27.4943 21.9047 21.8998 27.4969 15.0005 27.4969Z" fill="#493A31"/>
</svg>
