<svg width="48" height="56" viewBox="0 0 48 56" fill="none" xmlns="http://www.w3.org/2000/svg">
<path d="M25.7844 55.1C29.6844 53.1 33.3844 50.6 36.5844 47.6C37.2844 46.9 38.0844 46.2 38.6844 45.5C38.9844 45.2 39.2844 44.9 39.5844 44.5C40.0844 44 40.3844 43.5 40.8844 43C41.3844 42.4 41.8844 41.8 42.2844 41.1C43.1844 39.7 44.0844 38.3 44.7844 36.8C45.1844 36 45.5844 35.2 45.8844 34.3C46.6844 32.1 47.2844 29.8 47.5844 27.5C47.6844 26.9 47.6844 26.2 47.7844 25.6C47.8844 23.9 47.8844 22.3 47.5844 20.6C46.7844 15.6 44.7844 11.3 41.3844 7.7C40.0844 6.2 38.4844 5 36.8844 3.9C33.7844 1.9 30.3844 0.7 26.6844 0.2C26.2844 0.0999999 25.7844 0.2 25.3844 0H22.1844C22.1844 0.1 22.0844 0.1 21.9844 0.1C21.1844 0.2 20.3844 0.3 19.5844 0.4C13.6844 1.5 8.88437 4.4 5.18437 9.10001C2.08437 12.9 0.384375 17.4 0.084375 22.3C-0.215625 25.8 0.284375 29.3 1.58437 32.8C1.78437 33.4 2.08437 33.9 2.28437 34.4C2.38437 34.5 2.38438 34.7 2.48438 34.8C3.78437 37.3 5.38437 39.6 7.48437 41.5C8.58437 42.5 9.68437 43.4 10.9844 44.2C14.7844 46.6 18.9844 47.9 23.5844 48C23.8844 48 23.9844 48.1 23.9844 48.4V54C23.8844 54.9 24.8844 55.5 25.7844 55.1ZM26.0844 17.5C25.9844 16.9 26.1844 16.5 26.6844 16.2C26.8844 16.1 27.0844 16 27.2844 16C30.2844 16 33.1844 16 36.1844 16C36.9844 16 37.3844 16.7 37.3844 17.6C37.3844 18 37.3844 24.7 37.3844 28.1C37.3844 31.1 35.4844 33.9 32.7844 35.1C32.6844 35.1 32.6844 35.2 32.5844 35.2C32.5844 35.3 32.6844 35.3 32.7844 35.3C32.6844 35.3 32.6844 35.3 32.5844 35.2H32.4844C32.4844 35.2 32.4844 35.2 32.3844 35.2C31.7844 35.4 31.1844 35.5 30.5844 35.6C30.1844 35.7 29.8844 35.4 29.8844 35C29.8844 34.7 29.8844 34.4 29.8844 34C29.8844 33.4 29.8844 32.9 29.8844 32.3C29.8844 32.2 29.8844 32 29.8844 31.9C29.8844 31.5 30.0844 31.3 30.5844 31.1C31.2844 30.9 31.8844 30.7 32.4844 30.2C33.0844 29.6 33.4844 28.8 33.5844 28C31.6844 28 29.8844 28 27.9844 28C27.7844 28 27.5844 28 27.3844 28C26.5844 28 26.0844 27.5 26.0844 26.7C26.0844 23.7 26.0844 20.6 26.0844 17.5C26.0844 17.6 26.0844 17.6 26.0844 17.5ZM21.6844 28.1C21.6844 30.3 20.7844 32.2 19.1844 33.7C19.0844 33.8 18.9844 33.9 18.9844 33.9C18.1844 34.5 17.2844 35.1 16.1844 35.3C15.7844 35.4 15.2844 35.5 14.8844 35.6C14.5844 35.7 14.2844 35.5 14.1844 35.1C14.1844 34.1 14.1844 33.2 14.1844 32.2C14.1844 31.9 14.0844 31.6 14.2844 31.4C14.3844 31.3 14.4844 31.2 14.6844 31.1C15.1844 31 15.6844 30.9 16.1844 30.6C16.9844 30.1 17.5844 29.4 17.7844 28.4C17.7844 28.3 17.8844 28.1 17.8844 27.9C15.8844 27.9 13.8844 27.9 11.7844 27.9C11.5844 27.9 11.4844 27.9 11.2844 27.8C10.7844 27.7 10.3844 27.2 10.3844 26.6C10.3844 23.5 10.3844 20.5 10.3844 17.4C10.3844 16.9 10.3844 16.4 10.7844 16.1C10.9844 15.9 11.2844 15.8 11.5844 15.8C14.5844 15.8 17.5844 15.8 20.4844 15.8C21.2844 15.8 21.6844 16 21.6844 17.4C21.6844 17.8 21.6844 24.7 21.6844 28.1Z" fill="#83542C"/>
</svg>
