<svg width="38" height="38" viewBox="0 0 38 38" fill="none" xmlns="http://www.w3.org/2000/svg">
<path d="M16.625 0H5.54169C2.48581 0 0 2.48581 0 5.54169V32.4584C0 35.5142 2.48581 38 5.54169 38H7.125C7.562 38 7.91669 37.6453 7.91669 37.2083C7.91669 36.7713 7.562 36.4166 7.125 36.4166H5.54169C3.35988 36.4166 1.58338 34.6401 1.58338 32.4583V5.54169C1.58338 3.35988 3.35988 1.58338 5.54169 1.58338H16.625C18.8068 1.58338 20.5833 3.35988 20.5833 5.54169V13.4584C20.5833 13.8954 20.938 14.2501 21.375 14.2501C21.812 14.2501 22.1667 13.8954 22.1667 13.4584V5.54169C22.1667 2.48581 19.6808 0 16.625 0Z" fill="#493A31"/>
<path d="M21.375 6.33331H0.791691C0.354691 6.33331 0 6.68792 0 7.12482C0 7.56171 0.354691 7.91632 0.791691 7.91632H21.375C21.812 7.91632 22.1667 7.56171 22.1667 7.12482C22.1667 6.68792 21.812 6.33331 21.375 6.33331Z" fill="#493A31"/>
<path d="M14.25 28.5H0.791691C0.354691 28.5 0 28.8546 0 29.2915C0 29.7284 0.354691 30.0829 0.791691 30.0829H14.25C14.687 30.0829 15.0417 29.7284 15.0417 29.2915C15.0417 28.8546 14.687 28.5 14.25 28.5Z" fill="#493A31"/>
<path d="M13.4582 3.16669H8.7082C8.2712 3.16669 7.9165 3.5213 7.9165 3.9582C7.9165 4.3951 8.2712 4.74963 8.7082 4.74963H13.4582C13.8952 4.74963 14.2499 4.39502 14.2499 3.95812C14.2499 3.52122 13.8952 3.16669 13.4582 3.16669Z" fill="#493A31"/>
<path d="M16.6565 3.16669H16.6407C16.2037 3.16669 15.8569 3.5213 15.8569 3.9582C15.8569 4.3951 16.2195 4.74963 16.6565 4.74963C17.0935 4.74963 17.4482 4.39502 17.4482 3.95812C17.4482 3.52122 17.0935 3.16669 16.6565 3.16669Z" fill="#493A31"/>
<path d="M35.7358 20.9554L29.7825 14.4131C28.6045 13.2351 26.6855 13.2336 25.4964 14.4226C25.1196 14.7994 24.8631 15.2507 24.7301 15.7321C23.5458 14.8264 21.8374 14.9151 20.7464 16.006C20.3712 16.3828 20.1147 16.8341 19.9785 17.3138C18.7942 16.4081 17.0857 16.4968 15.9964 17.5893C15.6275 17.9582 15.3742 18.4 15.2364 18.8671L12.4307 16.0614C11.2527 14.8834 9.33374 14.8818 8.14468 16.0709C6.96512 17.2489 6.96512 19.1679 8.14468 20.3474L18.924 31.1267L12.5305 32.1306C10.803 32.3776 9.49999 33.8786 9.49999 35.625C9.49999 36.9344 10.5655 38 11.875 38H26.8042C29.1302 38 31.3167 37.0943 32.9618 35.4492L35.4524 32.9587C37.0959 31.3167 38 29.1317 38 26.809C38 24.6398 37.1957 22.5609 35.7358 20.9554ZM34.333 31.8392L31.8424 34.3298C30.4966 35.6756 28.7074 36.4166 26.8042 36.4166H11.875C11.438 36.4166 11.0833 36.0619 11.0833 35.6249C11.0833 34.6622 11.8021 33.8342 12.7648 33.6949L20.7052 32.4472C20.9997 32.4012 21.242 32.1939 21.3354 31.9104C21.4272 31.6286 21.3529 31.3167 21.1422 31.1061L9.26249 19.2264C8.70043 18.6644 8.70043 17.7507 9.27199 17.1792C9.5538 16.8989 9.92274 16.758 10.2917 16.758C10.6606 16.758 11.0295 16.8989 11.3114 17.1807L19.2328 25.1022C19.5416 25.4109 20.0435 25.4109 20.3523 25.1022C20.5058 24.947 20.5834 24.7444 20.5834 24.5417C20.5834 24.339 20.5059 24.1364 20.3523 23.9827L17.1175 20.748C16.5554 20.1859 16.5554 19.2723 17.127 18.7007C17.6875 18.1402 18.6043 18.1402 19.1648 18.7007L22.3995 21.9355C22.7083 22.2442 23.2102 22.2442 23.5189 21.9355C23.6725 21.7803 23.7501 21.5777 23.7501 21.375C23.7501 21.1723 23.6726 20.9697 23.5253 20.8224L21.8739 19.171C21.3118 18.6089 21.3118 17.6953 21.8834 17.1237C22.4439 16.5632 23.3606 16.5632 23.9211 17.1237L25.5726 18.7752C25.5741 18.7767 25.5741 18.7767 25.5741 18.7767L25.5757 18.7783C25.5773 18.7799 25.5773 18.7799 25.5773 18.7799C25.5788 18.7814 25.5788 18.7814 25.5788 18.7814H25.5804C25.5819 18.7814 25.5819 18.783 25.5819 18.783C25.8922 19.0759 26.3815 19.0712 26.6855 18.7672C26.9942 18.4584 26.9942 17.9565 26.6855 17.6477L26.6174 17.5797C26.3451 17.3073 26.1947 16.9447 26.1947 16.56C26.1947 16.1752 26.3435 15.8142 26.6254 15.5324C27.1874 14.9719 28.1011 14.9735 28.6378 15.5055L34.5658 22.0209C35.7581 23.3335 36.4167 25.034 36.4167 26.8089C36.4167 28.709 35.6772 30.495 34.333 31.8392Z" fill="#493A31"/>
</svg>
