<svg width="166" height="65" viewBox="0 0 166 65" fill="none" xmlns="http://www.w3.org/2000/svg">
<mask id="path-1-inside-1_42_8" fill="white">
<path d="M21.8377 34.4519C21.5652 34.4519 21.3199 34.3566 21.1018 34.1661C20.911 33.9756 20.8155 33.7307 20.8155 33.4312V28.7358H1.47567C1.17583 28.7358 0.930501 28.6405 0.739695 28.45C0.548889 28.2322 0.453481 27.9737 0.453481 27.6742V1.17577C0.453481 0.876321 0.548889 0.631343 0.739695 0.440836C0.930501 0.250328 1.17583 0.155029 1.47567 0.155029H6.75018C7.05006 0.155029 7.29538 0.250328 7.48616 0.440836C7.70426 0.631343 7.81326 0.876321 7.81326 1.17577V22.203H17.8716V1.17577C17.8716 0.876321 17.9671 0.631343 18.1578 0.440836C18.3486 0.250328 18.5939 0.155029 18.8938 0.155029H24.1683C24.4682 0.155029 24.7135 0.250328 24.9043 0.440836C25.0951 0.631343 25.1905 0.876321 25.1905 1.17577V22.203H27.1122C27.4121 22.203 27.6574 22.2983 27.8482 22.4889C28.0663 22.6794 28.1753 22.9243 28.1753 23.2238V33.4312C28.1753 33.7307 28.0663 33.9756 27.8482 34.1661C27.6574 34.3566 27.4121 34.4519 27.1122 34.4519H21.8377ZM39.9212 28.7358C39.6487 28.7358 39.4034 28.6405 39.1853 28.45C38.9945 28.2322 38.899 27.9872 38.899 27.7151V1.17577C38.899 0.876321 38.9945 0.631343 39.1853 0.440836C39.4034 0.250328 39.6487 0.155029 39.9212 0.155029H59.0158C59.3157 0.155029 59.561 0.250328 59.7518 0.440836C59.9426 0.631343 60.038 0.876321 60.038 1.17577V5.01376C60.038 5.28593 59.9426 5.5309 59.7518 5.74869C59.561 5.9392 59.3157 6.0345 59.0158 6.0345H45.9726V11.5465H58.1163C58.4161 11.5465 58.6615 11.6554 58.8522 11.8731C59.0431 12.0636 59.1384 12.3086 59.1384 12.6081V16.1603C59.1384 16.4324 59.0431 16.6774 58.8522 16.8952C58.6615 17.0857 58.4161 17.181 58.1163 17.181H45.9726V22.8563H59.3429C59.6428 22.8563 59.8881 22.9516 60.0789 23.1421C60.2697 23.3326 60.3651 23.5776 60.3651 23.8771V27.7151C60.3651 27.9872 60.2697 28.2322 60.0789 28.45C59.8881 28.6405 59.6428 28.7358 59.3429 28.7358H39.9212ZM70.0421 28.7358C69.7967 28.7358 69.5786 28.6541 69.3879 28.4908C69.2243 28.3003 69.1425 28.0962 69.1425 27.8784C69.1425 27.6879 69.1971 27.5245 69.3061 27.3884L78.2196 14.1596L69.9603 1.50241C69.8785 1.33909 69.8376 1.17577 69.8376 1.01245C69.8376 0.794663 69.9194 0.604154 70.083 0.440836C70.2465 0.250328 70.451 0.155029 70.6963 0.155029H76.625C76.9521 0.155029 77.2246 0.236689 77.4427 0.400007C77.6608 0.563326 77.8653 0.767474 78.0561 1.01245L82.9217 8.40262L87.8691 1.01245C88.2234 0.440837 88.7005 0.155029 89.3002 0.155029H94.943C95.1605 0.155029 95.3519 0.250328 95.5155 0.440836C95.706 0.604154 95.8017 0.794663 95.8017 1.01245C95.8017 1.20296 95.7468 1.36628 95.6381 1.50241L87.3376 14.1188L96.3332 27.3884C96.415 27.4973 96.4559 27.6606 96.4559 27.8784C96.4559 28.0962 96.3741 28.3003 96.2106 28.4908C96.047 28.6541 95.8426 28.7358 95.5972 28.7358H89.5046C88.9322 28.7358 88.4552 28.4636 88.0735 27.9192L82.6764 20.0799L77.3201 27.9192C77.0202 28.4636 76.5569 28.7358 75.9299 28.7358H70.0421ZM0.654203 59.358C0.455963 59.358 0.297365 59.2986 0.178419 59.1799C0.0594729 59.0611 0 58.9027 0 58.7048V44.5703C0 44.3723 0.0594729 44.2139 0.178419 44.0952C0.297365 43.9764 0.455963 43.917 0.654203 43.917H1.15972C1.35796 43.917 1.51656 43.9764 1.63551 44.0952C1.75445 44.2139 1.81393 44.3723 1.81393 44.5703V50.5982H11.0917V44.5703C11.0917 44.3723 11.1512 44.2139 11.2701 44.0952C11.3891 43.9764 11.5477 43.917 11.7459 43.917H12.2514C12.4496 43.917 12.6083 43.9764 12.7272 44.0952C12.8462 44.2139 12.9056 44.3723 12.9056 44.5703V58.7048C12.9056 58.9027 12.8462 59.0611 12.7272 59.1799C12.6083 59.2986 12.4496 59.358 12.2514 59.358H11.7459C11.5477 59.358 11.3891 59.2986 11.2701 59.1799C11.1512 59.0611 11.0917 58.9027 11.0917 58.7048V52.3205H1.81393V58.7048C1.81393 58.9027 1.75445 59.0611 1.63551 59.1799C1.51656 59.2986 1.35796 59.358 1.15972 59.358H0.654203ZM29.1032 59.655C27.0414 59.655 25.4357 59.0314 24.2859 57.7842C23.1559 56.5173 22.5612 54.8841 22.5017 52.8847L22.472 51.6375L22.5017 50.3904C22.5612 48.3909 23.1559 46.7677 24.2859 45.5205C25.4357 44.2536 27.0414 43.6201 29.1032 43.6201C31.165 43.6201 32.7608 44.2536 33.8908 45.5205C35.0406 46.7677 35.6452 48.3909 35.7047 50.3904C35.7245 50.5883 35.7344 51.004 35.7344 51.6375C35.7344 52.271 35.7245 52.6868 35.7047 52.8847C35.6452 54.8841 35.0406 56.5173 33.8908 57.7842C32.7608 59.0314 31.165 59.655 29.1032 59.655ZM29.1032 57.9327C30.5108 57.9327 31.6407 57.4873 32.4932 56.5965C33.3655 55.6859 33.8313 54.3991 33.8908 52.7362C33.9106 52.5383 33.9205 52.172 33.9205 51.6375C33.9205 51.103 33.9106 50.7368 33.8908 50.5388C33.8313 48.876 33.3655 47.5991 32.4932 46.7083C31.6407 45.7977 30.5108 45.3423 29.1032 45.3423C27.6956 45.3423 26.5558 45.7977 25.6835 46.7083C24.8311 47.5991 24.3751 48.876 24.3156 50.5388L24.2859 51.6375L24.3156 52.7362C24.3751 54.3991 24.8311 55.6859 25.6835 56.5965C26.5558 57.4873 27.6956 57.9327 29.1032 57.9327ZM59.6312 43.917C59.7898 43.917 59.9286 43.9764 60.0475 44.0952C60.1665 44.2139 60.226 44.3427 60.226 44.4812V58.7048C60.226 58.9027 60.1665 59.0611 60.0475 59.1799C59.9286 59.2986 59.77 59.358 59.5718 59.358H59.0662C58.8679 59.358 58.7094 59.2986 58.5905 59.1799C58.4715 59.0611 58.412 58.9027 58.412 58.7048V47.5991L54.0705 56.0026C53.9119 56.2798 53.7632 56.4876 53.6245 56.6262C53.5055 56.7647 53.3172 56.834 53.0595 56.834H52.4647C52.207 56.834 52.0088 56.7647 51.87 56.6262C51.7511 56.4876 51.6122 56.2798 51.4537 56.0026L47.1122 47.8367V58.7048C47.1122 58.9027 47.0527 59.0611 46.9338 59.1799C46.8148 59.2986 46.6562 59.358 46.458 59.358H45.9524C45.7541 59.358 45.5956 59.2986 45.4767 59.1799C45.3577 59.0611 45.2982 58.9027 45.2982 58.7048V44.4812C45.2982 44.3427 45.3577 44.2139 45.4767 44.0952C45.5956 43.9764 45.7343 43.917 45.893 43.917H46.5769C46.8743 43.917 47.1022 44.0655 47.2609 44.3624L52.7621 54.7554L58.2634 44.3624C58.4219 44.0655 58.6499 43.917 58.9473 43.917H59.6312ZM76.2855 59.655C74.4022 59.655 72.8856 59.0413 71.7358 57.8139C70.586 56.5668 69.9318 54.9039 69.7732 52.8253L69.7435 51.6375L69.7732 50.4497C69.9318 48.3909 70.5761 46.738 71.7061 45.4908C72.8559 44.2436 74.3824 43.6201 76.2855 43.6201C78.3472 43.6201 79.953 44.303 81.1028 45.669C82.2724 47.0349 82.8573 48.9056 82.8573 51.2812V51.7266C82.8573 51.9245 82.7879 52.0829 82.6491 52.2017C82.5302 52.3205 82.3716 52.3799 82.1734 52.3799H71.5872V52.6768C71.6267 53.6073 71.8349 54.4782 72.2116 55.2899C72.608 56.0817 73.1533 56.7252 73.8471 57.22C74.5409 57.6952 75.3538 57.9327 76.2855 57.9327C77.3758 57.9327 78.258 57.7249 78.9321 57.3091C79.6259 56.8736 80.1215 56.4381 80.4189 56.0026C80.5973 55.765 80.7261 55.6166 80.8055 55.5572C80.9045 55.4978 81.0731 55.4681 81.311 55.4681H81.7868C81.9652 55.4681 82.1139 55.5175 82.2328 55.6166C82.3518 55.7156 82.4112 55.8442 82.4112 56.0026C82.4112 56.4183 82.1436 56.9231 81.6084 57.517C81.0929 58.0911 80.3693 58.5959 79.4376 59.0314C78.5058 59.4471 77.4551 59.655 76.2855 59.655ZM81.0434 50.717V50.5982C81.0434 49.0739 80.6072 47.8169 79.735 46.827C78.8825 45.8372 77.7327 45.3423 76.2855 45.3423C74.8383 45.3423 73.6885 45.8372 72.8361 46.827C72.0035 47.8169 71.5872 49.0739 71.5872 50.5982V50.717H81.0434ZM92.9646 65C92.7667 65 92.6078 64.9406 92.4888 64.8218C92.3699 64.703 92.3104 64.5446 92.3104 64.3467V44.5703C92.3104 44.3723 92.3699 44.2139 92.4888 44.0952C92.6078 43.9764 92.7667 43.917 92.9646 43.917H93.4702C93.6681 43.917 93.827 43.9764 93.9459 44.0952C94.0649 44.2139 94.1244 44.3723 94.1244 44.5703V45.9659C95.2738 44.402 96.9391 43.6201 99.1201 43.6201C101.261 43.6201 102.837 44.303 103.848 45.669C104.879 47.0151 105.424 48.678 105.484 50.6576C105.503 50.8555 105.513 51.1822 105.513 51.6375C105.513 52.0929 105.503 52.4195 105.484 52.6174C105.424 54.597 104.879 56.2698 103.848 57.6358C102.837 58.9819 101.261 59.655 99.1201 59.655C96.9595 59.655 95.2943 58.873 94.1244 57.3091V64.3467C94.1244 64.5446 94.0649 64.703 93.9459 64.8218C93.827 64.9406 93.6681 65 93.4702 65H92.9646ZM98.9417 57.9327C100.547 57.9327 101.717 57.4279 102.451 56.4183C103.204 55.3889 103.61 54.0724 103.67 52.469C103.689 52.271 103.7 51.9939 103.7 51.6375C103.7 49.7965 103.343 48.292 102.629 47.124C101.915 45.9362 100.686 45.3423 98.9417 45.3423C97.3759 45.3423 96.1957 45.8669 95.403 46.9161C94.6104 47.9455 94.1838 49.163 94.1244 50.5685L94.0946 51.7266L94.1244 52.8847C94.1439 53.7359 94.3325 54.5476 94.6893 55.3196C95.0462 56.0719 95.5814 56.6955 96.2951 57.1904C97.0088 57.6852 97.8907 57.9327 98.9417 57.9327Z"/>
</mask>
<path d="M21.8377 34.4519C21.5652 34.4519 21.3199 34.3566 21.1018 34.1661C20.911 33.9756 20.8155 33.7307 20.8155 33.4312V28.7358H1.47567C1.17583 28.7358 0.930501 28.6405 0.739695 28.45C0.548889 28.2322 0.453481 27.9737 0.453481 27.6742V1.17577C0.453481 0.876321 0.548889 0.631343 0.739695 0.440836C0.930501 0.250328 1.17583 0.155029 1.47567 0.155029H6.75018C7.05006 0.155029 7.29538 0.250328 7.48616 0.440836C7.70426 0.631343 7.81326 0.876321 7.81326 1.17577V22.203H17.8716V1.17577C17.8716 0.876321 17.9671 0.631343 18.1578 0.440836C18.3486 0.250328 18.5939 0.155029 18.8938 0.155029H24.1683C24.4682 0.155029 24.7135 0.250328 24.9043 0.440836C25.0951 0.631343 25.1905 0.876321 25.1905 1.17577V22.203H27.1122C27.4121 22.203 27.6574 22.2983 27.8482 22.4889C28.0663 22.6794 28.1753 22.9243 28.1753 23.2238V33.4312C28.1753 33.7307 28.0663 33.9756 27.8482 34.1661C27.6574 34.3566 27.4121 34.4519 27.1122 34.4519H21.8377ZM39.9212 28.7358C39.6487 28.7358 39.4034 28.6405 39.1853 28.45C38.9945 28.2322 38.899 27.9872 38.899 27.7151V1.17577C38.899 0.876321 38.9945 0.631343 39.1853 0.440836C39.4034 0.250328 39.6487 0.155029 39.9212 0.155029H59.0158C59.3157 0.155029 59.561 0.250328 59.7518 0.440836C59.9426 0.631343 60.038 0.876321 60.038 1.17577V5.01376C60.038 5.28593 59.9426 5.5309 59.7518 5.74869C59.561 5.9392 59.3157 6.0345 59.0158 6.0345H45.9726V11.5465H58.1163C58.4161 11.5465 58.6615 11.6554 58.8522 11.8731C59.0431 12.0636 59.1384 12.3086 59.1384 12.6081V16.1603C59.1384 16.4324 59.0431 16.6774 58.8522 16.8952C58.6615 17.0857 58.4161 17.181 58.1163 17.181H45.9726V22.8563H59.3429C59.6428 22.8563 59.8881 22.9516 60.0789 23.1421C60.2697 23.3326 60.3651 23.5776 60.3651 23.8771V27.7151C60.3651 27.9872 60.2697 28.2322 60.0789 28.45C59.8881 28.6405 59.6428 28.7358 59.3429 28.7358H39.9212ZM70.0421 28.7358C69.7967 28.7358 69.5786 28.6541 69.3879 28.4908C69.2243 28.3003 69.1425 28.0962 69.1425 27.8784C69.1425 27.6879 69.1971 27.5245 69.3061 27.3884L78.2196 14.1596L69.9603 1.50241C69.8785 1.33909 69.8376 1.17577 69.8376 1.01245C69.8376 0.794663 69.9194 0.604154 70.083 0.440836C70.2465 0.250328 70.451 0.155029 70.6963 0.155029H76.625C76.9521 0.155029 77.2246 0.236689 77.4427 0.400007C77.6608 0.563326 77.8653 0.767474 78.0561 1.01245L82.9217 8.40262L87.8691 1.01245C88.2234 0.440837 88.7005 0.155029 89.3002 0.155029H94.943C95.1605 0.155029 95.3519 0.250328 95.5155 0.440836C95.706 0.604154 95.8017 0.794663 95.8017 1.01245C95.8017 1.20296 95.7468 1.36628 95.6381 1.50241L87.3376 14.1188L96.3332 27.3884C96.415 27.4973 96.4559 27.6606 96.4559 27.8784C96.4559 28.0962 96.3741 28.3003 96.2106 28.4908C96.047 28.6541 95.8426 28.7358 95.5972 28.7358H89.5046C88.9322 28.7358 88.4552 28.4636 88.0735 27.9192L82.6764 20.0799L77.3201 27.9192C77.0202 28.4636 76.5569 28.7358 75.9299 28.7358H70.0421ZM0.654203 59.358C0.455963 59.358 0.297365 59.2986 0.178419 59.1799C0.0594729 59.0611 0 58.9027 0 58.7048V44.5703C0 44.3723 0.0594729 44.2139 0.178419 44.0952C0.297365 43.9764 0.455963 43.917 0.654203 43.917H1.15972C1.35796 43.917 1.51656 43.9764 1.63551 44.0952C1.75445 44.2139 1.81393 44.3723 1.81393 44.5703V50.5982H11.0917V44.5703C11.0917 44.3723 11.1512 44.2139 11.2701 44.0952C11.3891 43.9764 11.5477 43.917 11.7459 43.917H12.2514C12.4496 43.917 12.6083 43.9764 12.7272 44.0952C12.8462 44.2139 12.9056 44.3723 12.9056 44.5703V58.7048C12.9056 58.9027 12.8462 59.0611 12.7272 59.1799C12.6083 59.2986 12.4496 59.358 12.2514 59.358H11.7459C11.5477 59.358 11.3891 59.2986 11.2701 59.1799C11.1512 59.0611 11.0917 58.9027 11.0917 58.7048V52.3205H1.81393V58.7048C1.81393 58.9027 1.75445 59.0611 1.63551 59.1799C1.51656 59.2986 1.35796 59.358 1.15972 59.358H0.654203ZM29.1032 59.655C27.0414 59.655 25.4357 59.0314 24.2859 57.7842C23.1559 56.5173 22.5612 54.8841 22.5017 52.8847L22.472 51.6375L22.5017 50.3904C22.5612 48.3909 23.1559 46.7677 24.2859 45.5205C25.4357 44.2536 27.0414 43.6201 29.1032 43.6201C31.165 43.6201 32.7608 44.2536 33.8908 45.5205C35.0406 46.7677 35.6452 48.3909 35.7047 50.3904C35.7245 50.5883 35.7344 51.004 35.7344 51.6375C35.7344 52.271 35.7245 52.6868 35.7047 52.8847C35.6452 54.8841 35.0406 56.5173 33.8908 57.7842C32.7608 59.0314 31.165 59.655 29.1032 59.655ZM29.1032 57.9327C30.5108 57.9327 31.6407 57.4873 32.4932 56.5965C33.3655 55.6859 33.8313 54.3991 33.8908 52.7362C33.9106 52.5383 33.9205 52.172 33.9205 51.6375C33.9205 51.103 33.9106 50.7368 33.8908 50.5388C33.8313 48.876 33.3655 47.5991 32.4932 46.7083C31.6407 45.7977 30.5108 45.3423 29.1032 45.3423C27.6956 45.3423 26.5558 45.7977 25.6835 46.7083C24.8311 47.5991 24.3751 48.876 24.3156 50.5388L24.2859 51.6375L24.3156 52.7362C24.3751 54.3991 24.8311 55.6859 25.6835 56.5965C26.5558 57.4873 27.6956 57.9327 29.1032 57.9327ZM59.6312 43.917C59.7898 43.917 59.9286 43.9764 60.0475 44.0952C60.1665 44.2139 60.226 44.3427 60.226 44.4812V58.7048C60.226 58.9027 60.1665 59.0611 60.0475 59.1799C59.9286 59.2986 59.77 59.358 59.5718 59.358H59.0662C58.8679 59.358 58.7094 59.2986 58.5905 59.1799C58.4715 59.0611 58.412 58.9027 58.412 58.7048V47.5991L54.0705 56.0026C53.9119 56.2798 53.7632 56.4876 53.6245 56.6262C53.5055 56.7647 53.3172 56.834 53.0595 56.834H52.4647C52.207 56.834 52.0088 56.7647 51.87 56.6262C51.7511 56.4876 51.6122 56.2798 51.4537 56.0026L47.1122 47.8367V58.7048C47.1122 58.9027 47.0527 59.0611 46.9338 59.1799C46.8148 59.2986 46.6562 59.358 46.458 59.358H45.9524C45.7541 59.358 45.5956 59.2986 45.4767 59.1799C45.3577 59.0611 45.2982 58.9027 45.2982 58.7048V44.4812C45.2982 44.3427 45.3577 44.2139 45.4767 44.0952C45.5956 43.9764 45.7343 43.917 45.893 43.917H46.5769C46.8743 43.917 47.1022 44.0655 47.2609 44.3624L52.7621 54.7554L58.2634 44.3624C58.4219 44.0655 58.6499 43.917 58.9473 43.917H59.6312ZM76.2855 59.655C74.4022 59.655 72.8856 59.0413 71.7358 57.8139C70.586 56.5668 69.9318 54.9039 69.7732 52.8253L69.7435 51.6375L69.7732 50.4497C69.9318 48.3909 70.5761 46.738 71.7061 45.4908C72.8559 44.2436 74.3824 43.6201 76.2855 43.6201C78.3472 43.6201 79.953 44.303 81.1028 45.669C82.2724 47.0349 82.8573 48.9056 82.8573 51.2812V51.7266C82.8573 51.9245 82.7879 52.0829 82.6491 52.2017C82.5302 52.3205 82.3716 52.3799 82.1734 52.3799H71.5872V52.6768C71.6267 53.6073 71.8349 54.4782 72.2116 55.2899C72.608 56.0817 73.1533 56.7252 73.8471 57.22C74.5409 57.6952 75.3538 57.9327 76.2855 57.9327C77.3758 57.9327 78.258 57.7249 78.9321 57.3091C79.6259 56.8736 80.1215 56.4381 80.4189 56.0026C80.5973 55.765 80.7261 55.6166 80.8055 55.5572C80.9045 55.4978 81.0731 55.4681 81.311 55.4681H81.7868C81.9652 55.4681 82.1139 55.5175 82.2328 55.6166C82.3518 55.7156 82.4112 55.8442 82.4112 56.0026C82.4112 56.4183 82.1436 56.9231 81.6084 57.517C81.0929 58.0911 80.3693 58.5959 79.4376 59.0314C78.5058 59.4471 77.4551 59.655 76.2855 59.655ZM81.0434 50.717V50.5982C81.0434 49.0739 80.6072 47.8169 79.735 46.827C78.8825 45.8372 77.7327 45.3423 76.2855 45.3423C74.8383 45.3423 73.6885 45.8372 72.8361 46.827C72.0035 47.8169 71.5872 49.0739 71.5872 50.5982V50.717H81.0434ZM92.9646 65C92.7667 65 92.6078 64.9406 92.4888 64.8218C92.3699 64.703 92.3104 64.5446 92.3104 64.3467V44.5703C92.3104 44.3723 92.3699 44.2139 92.4888 44.0952C92.6078 43.9764 92.7667 43.917 92.9646 43.917H93.4702C93.6681 43.917 93.827 43.9764 93.9459 44.0952C94.0649 44.2139 94.1244 44.3723 94.1244 44.5703V45.9659C95.2738 44.402 96.9391 43.6201 99.1201 43.6201C101.261 43.6201 102.837 44.303 103.848 45.669C104.879 47.0151 105.424 48.678 105.484 50.6576C105.503 50.8555 105.513 51.1822 105.513 51.6375C105.513 52.0929 105.503 52.4195 105.484 52.6174C105.424 54.597 104.879 56.2698 103.848 57.6358C102.837 58.9819 101.261 59.655 99.1201 59.655C96.9595 59.655 95.2943 58.873 94.1244 57.3091V64.3467C94.1244 64.5446 94.0649 64.703 93.9459 64.8218C93.827 64.9406 93.6681 65 93.4702 65H92.9646ZM98.9417 57.9327C100.547 57.9327 101.717 57.4279 102.451 56.4183C103.204 55.3889 103.61 54.0724 103.67 52.469C103.689 52.271 103.7 51.9939 103.7 51.6375C103.7 49.7965 103.343 48.292 102.629 47.124C101.915 45.9362 100.686 45.3423 98.9417 45.3423C97.3759 45.3423 96.1957 45.8669 95.403 46.9161C94.6104 47.9455 94.1838 49.163 94.1244 50.5685L94.0946 51.7266L94.1244 52.8847C94.1439 53.7359 94.3325 54.5476 94.6893 55.3196C95.0462 56.0719 95.5814 56.6955 96.2951 57.1904C97.0088 57.6852 97.8907 57.9327 98.9417 57.9327Z" fill="#F3F3F3" stroke="#F3F3F3" stroke-width="2" mask="url(#path-1-inside-1_42_8)"/>
<path d="M121.355 12.9515C120.829 12.9515 120.39 12.7918 120.014 12.4732C119.695 12.0982 119.535 11.6601 119.535 11.1354V2.22707C119.535 1.69715 119.697 1.29857 120.001 0.989044C120.38 0.663328 120.823 0.5 121.355 0.5H163.015C163.627 0.5 164.054 0.674594 164.357 0.977385C164.669 1.28855 164.835 1.69047 164.835 2.22707V10.1555C164.835 11.3146 164.531 12.5794 163.899 13.9556L163.897 13.96L143.292 60.0115C143.291 60.0122 143.291 60.0129 143.291 60.0136C142.992 60.6627 142.621 61.1172 142.192 61.411C141.766 61.703 141.25 61.858 140.624 61.858H129.116C128.711 61.858 128.399 61.7308 128.144 61.483C127.872 61.1594 127.742 60.8038 127.742 60.3982C127.742 60.1697 127.788 59.9806 127.868 59.8203L127.873 59.8104L127.877 59.8003L148.485 13.6554L148.799 12.9515H148.028H121.355Z" fill="#F3F3F3" stroke="#F3F3F3"/>
</svg>
